<?xml version="1.0" encoding="utf-8"?>
<!-- Generator: Adobe Illustrator 22.1.0, SVG Export Plug-In . SVG Version: 6.00 Build 0)  -->
<svg version="1.1" id="Layer_1" xmlns="http://www.w3.org/2000/svg" xmlns:xlink="http://www.w3.org/1999/xlink" x="0px" y="0px"
	 viewBox="0 0 841.9 1190.6" style="enable-background:new 0 0 841.9 1190.6;" xml:space="preserve">
<style type="text/css">
	.st0{fill:#EDC6C2;}
	.st1{fill:#ACB4DA;}
	.st2{fill:#F7ECDB;}
	.st3{fill:#F2E0E9;}
	.st4{fill:#E7F2EF;}
	.st5{fill:#8A87A3;}
	.st6{fill:#F2F4CA;}
	.st7{fill:#E1DBEC;}
	.st8{fill:#E8F3EF;}
	.st9{fill:#E1DCEC;}
	.st10{fill:#ECDEA9;}
	.st11{fill:#FEFEFA;}
	.st12{fill:#ECDEAA;}
	.st13{fill:#F2E9C8;}
</style>
<path class="st0" d="M842.6,856c-4.9-2.1-9.1-4-6.8-5.9c2.2-1.9,4.2-4,5.7-6.5c0.4-0.6,0.7-1.2,1.2-1.8v-111
	c-1.2,1.1-2.4,2.2-3.6,3.3c-3,3-6.2,6-8.7,9.6c-2.4,3.4-4.4,7-6.5,10.6c-2.6,4.4-5,8.8-6.5,13.6c-0.3,1-0.7,2.1-1.2,3
	c-0.9,2-2.1,2.5-3.8,1.2c-2.4-1.9-5.3-3.2-7.7-4.9c-5.4-3.8-11.4-6-17.5-8.4c-5.2-2-10.5-2.3-15.9-2.7c-2.3-0.2-3.6,0.8-4.6,2.9
	c-3.3,6.8-7.1,13.4-11.5,19.6c-2.3,3.2-4.7,6.5-6.2,10.1c-3.5,8.1-6,16.6-8,25.3c-1.4,6.3-3,12.6-4.8,18.8c-1,3.5-2.5,4.3-6,4
	c-0.7-0.1-1.4-0.2-2.1-0.4c-6.9-2.1-14.1-3.1-20.8-5.8c-0.8-0.3-1.7-0.5-2.6-0.7c-9-1.7-18-1.6-26.9-0.1c-0.9,0.2-1.8,0.3-2.6,0.7
	c-4.8,2.2-9.5,4.4-14.3,6.6c-1.8,0.8-2.9,2.1-3.3,4c-0.8,4.1-0.8,8.2,0.1,12.3c1.1,5,3.4,9.5,5.5,14.1c1.7,3.6,3.3,7.2,6.5,9.9
	c1.5,1.2,2.6,3,2.5,4.6c-0.2,3.4,0.7,6.8-0.5,10.2c-0.7,2-1.3,4.2-1.3,6.3c-0.1,4.8-1.9,9.1-3.3,13.6c-1.6,5-3.6,9.9-6.4,14.3
	c-2.5,4.1-4.4,8.3-5.9,12.7c-1.9,5.7-2.6,11.5-2,17.6c0.6,6.4,1.5,12.9,0.3,19.4c-0.1,0.5-0.2,1.1-0.1,1.6c1.1,4.2,1.5,8.5,3.4,12.5
	c4.3,9.4,8.8,18.6,13.1,28c1.5,3.3,4.2,5.5,7,7.3c3.1,2,6.8,3.3,10.3,4.7c2.7,1.1,5.4,2.2,8.4,1.5c0.7-0.2,1.5-0.1,2.1,0.1
	c3.9,1.3,7.9,0.8,11.8,1.2c4.3,0.3,8.3-0.7,12.1-2.4c6-2.7,12.2-4.4,18.7-5c2.2-0.2,4.2-0.9,6.2-1.8c2.9-1.4,5.8-3.1,8.9-3.9
	c3.4-0.9,6.5-2.3,9.6-3.7c4.9-2.3,9.8-4.6,14.7-6.9c0.3-0.5,0.4-1.2,0.8-1.3c3.4-1.1,3.4-3.9,3.2-6.6c-0.2-2.2-0.5-4.3-0.8-6.4
	c-0.1-1.3-0.4-2.5-0.3-3.8c0.7-5,0.1-10.1,0.3-15.1c0.2-5.7,0.4-11.5-0.6-17.3c-0.6-3.8-0.2-7.9-0.3-11.8c-0.1-4.1-0.3-8.2,1-12.3
	c0.7-2.4,1-4.9,1.1-7.4c0-1.7,0.4-3.2,1.3-4.6c1.7-2.8,2.7-5.9,3.3-9.1c0.4-1.9,0.9-3.9,1.8-5.6c0.4-0.7,0.8-1.3,1.1-2
	c9.1,4.8,32.2,3,47.4-6.6c0.5-0.4,2.1-4.1,4-9V856z"/>
<path class="st1" d="M125.4,634.9c-1.3-5.8-3-11.4-5.6-16.7c-0.7-1.6-2.1-2.8-3-4.3c-4.9-8.8-11.4-16.5-16.8-24.9
	c-2.1-3.2-4.6-6.1-6.6-9.4c-3.3-5.2-7.7-9.4-12.4-13.2c-5.5-4.4-10.6-9.2-16-13.6c-5.2-4.2-10.9-7.8-17.2-10.1
	c-4.1-1.5-7.9-3.5-11-6.5c-1.7-1.7-3.9-2.8-6.1-3.7c-1.3-0.5-2.7-0.9-4-1.6c-5.7-2.9-11.7-5-17.3-8c-3-1.6-6.1-2.9-9.3-4.1
	c0.1,10,0.2,20.1,0.2,30.1c0.7,97.9,0.2,195.8,0,293.7c2.3-3.9,4.7-7.8,7-11.6c5.3-8.5,10.3-17.2,14.8-26.2
	c3.4-7,6.7-14.1,11.5-20.3c1.8-2.4,3.1-5.2,5.4-7.3c0.3-0.3,0.6-0.7,0.8-1.2c1.7-4.9,5.1-8.8,7.7-13.2c3.9-6.5,8-13,12.2-19.4
	c2.7-4.1,5.3-8.3,9.6-11.1c2.8-1.8,5.3-4.2,7.6-6.6c3.8-3.9,8.1-7.2,12.6-10.3c2.2-1.5,4.5-3,6.5-4.9c5.7-5.5,11.4-11.2,17-16.9
	c2.4-2.5,4.5-5.3,5.7-8.7c0.7-2.1,1.5-4.2,2.7-6.1c2.3-3.6,3.5-7.5,4.2-11.6c0-1.9-0.1-3.8-0.1-5.7c-0.6-1.3-0.6-2.6,0-3.9
	c0.1-1.3,0.1-2.6,0.2-3.9c0.8-1.1-0.2-2.6,0.8-3.7C126.3,645,126.5,639.9,125.4,634.9z"/>
<path class="st2" d="M600.9,1093.3c0.2,1.6,0.7,3.1,1.3,4.6c1.6,4,3.1,8,5,11.8c2.4,4.8,5,9.5,8.6,13.7c2.8,3.2,5.8,6.3,8.2,9.9
	c1.4,2.1,3.4,3.7,5.8,4.9c3,1.5,5.9,3.2,8.8,4.8c1.1,0.6,2.4,1.1,3.2,2.1c1.6,1.7,3.5,2.7,5.5,3.7c25.4,13.8,50.7,27.6,76.1,41.4h95
	c2.2-0.9,4.3-1.7,6.5-2.6c5.9-2.4,12.1-3.9,17.8-6.8V882.7c-5.1,1-10.2,2-15.3,3.3c-4.9,1.3-9.3,3.2-13.7,5.5
	c-14.1,7.1-27.2,16-41.4,22.9c-5.6,2.7-10.9,6.1-15.9,9.7c-9.6,6.8-19.5,13.2-29.9,19c-20.1,11.2-39.3,23.9-57.8,37.4
	c-6.1,4.5-10.8,10.9-17.8,14.4c-7.2,3.5-12.3,9.5-17.5,15.3c0,1.5-0.2,2.8-1.6,3.8c-1.2,0.8-2.2,1.8-3.3,2.8
	c-3.4,2.9-6.4,6.2-8.6,10.1c-1.9,3.3-3.3,6.9-6.2,9.6c-0.4,0.4-0.7,1.1-1,1.6c-3.1,5.7-6.3,11.5-9.4,17.2c-0.7,1.3-1.1,2.6-1.3,4
	c-0.5,3.8-1.4,7.5-2.5,11.1c-0.9,2.9-1.9,5.8-1.2,8.9C599.2,1083.9,600.2,1088.6,600.9,1093.3z"/>
<path class="st3" d="M276.2,85.2c0-1.6-0.2-3.1-0.6-4.7c-1.7-6.8-3.8-13.4-6.6-19.9c-1.2-2.9-2.1-5.9-2.6-9.1
	c-0.8-5.2-2.4-10.2-3.9-15.2c-1.6-5.2-3.9-10.1-4.7-15.5c-0.5-2.8-1.2-5.7-2.6-8.1c-1.9-3.3-3.2-6.9-5.6-10c-0.7-0.9-0.9-2-1.3-3.1
	c-0.1-0.3-0.2-0.5-0.3-0.8h-97.9c1.1,7.6,1.5,15.3,1.2,23.1c-0.4,9.9-0.3,19.8,0,29.7c0.3,13.3-0.5,26.3-5.5,39
	c-4.8,12.3-10.5,24.1-17.9,34.8c-5.2,7.5-10.9,14.7-19.2,19.6c-3.5,2.1-6.5,3.5-10.4,3.5c-9.5,0.1-18.5,3-27.2,6.5
	c-9.5,3.9-19.1,7.7-28.6,11.6c-7.6,3.1-15.3,6.3-22.8,9.6c-3.5,1.5-7.1,3.1-10.9,3.6c-3.3,0.4-6.7,1-9.9,1.6
	c0.1,19.5,0.5,38.9,1.1,58.4c1.6,49.2,4.4,98.4,6.8,147.6c5.4,0,10.7,0,16.1,0c1.6,0,3.1-0.2,4.7-0.6c4.6-1.2,9.3-2.1,13.9-3
	c0.9-0.2,1.9-0.1,2.8-0.1c0.9,0,1.5,0.4,1.8,1.2c0.2,0.6,0.6,1.1,1,1.6c2.4-2.8,5.5-4,9.1-4.6c19-3.2,37.3-9.2,55.6-14.8
	c3.9-1.2,7.1-3.6,10.8-5.1c8-3.2,16.4-5.3,24-9.4c9.7-5.2,20.2-8.4,29.8-13.9c10.8-6.2,20.4-13.6,28.3-23c7-8.3,10.9-18.6,15.4-28.5
	c5.7-12.5,9.4-26.1,18.7-36.8c-0.5,0-1,0-1.4-0.1c-2.1-0.6-2.7-1.7-2-3.5c0.6-1.5,1.3-3,2.3-4.2c1.9-2.2,2.8-4.9,4.1-7.4
	c2.4-4.7,3.8-9.8,6.4-14.4c2.7-4.9,5.1-9.9,7.6-14.9c1.6-3.3,3.9-6.2,6.3-8.9c2.8-3.1,5.3-6.3,7.1-10.1c0.8-1.6,1.7-3,2.6-4.5
	c2.5-4.3,4.4-8.8,4.4-13.9C276.2,140.8,276.2,113,276.2,85.2z"/>
<path class="st4" d="M174.2,908.3c0,0.6-0.1,1.3,0,1.9c0.2,1.4,0.8,1.8,1.9,1.3c2.6-1.3,5.3-2.4,7.6-3.9c5.4-3.6,11.2-6.7,16.3-10.8
	c1.6-1.3,3.5-2.2,5.3-3.2c2.1-1.1,4.2-2.3,6.1-3.8c2-1.5,4.4-2.5,6.7-3.6c1.9-0.9,3.5-2.1,5.1-3.5c1.7-1.6,3.5-3.2,5.6-4.5
	c3.9-2.4,7.3-5.7,11.1-8.3c4.4-3.1,9-5.9,13.6-8.8c0.4-0.3,0.8-0.6,1.3-0.7c4.7-0.7,9.1-2.7,13.9-3.1c0.5,0,1,0,1.4-0.2
	c4.4-1.5,9-1.8,13.5-2.8c2.5-0.6,4.8-1.6,7.1-2.6c5.5-2.6,11-2.6,16.8-1.2c1.2,0.3,2.5,0.9,3.7,0.9c4.7,0.1,6.9,3.4,9.1,6.8
	c0.7,1.1,1.1,2.3,1.5,3.5c1.7,5,3.3,10,5,15c0.6,1.7,0.8,3.4,0.8,5.2c0,11.8,0,23.6,0,35.4c0,2.1-0.6,4.1-0.9,6.1
	c-0.8,4.7-1.2,9.4-2,14.1c-0.5,2.8-1.3,5.6-2.1,8.3c-0.8,2.7-1.7,5.5-2.7,8.1c-2.4,6.2-4.4,12.6-7.7,18.5c-2.3,4.1-3.5,8.4-4.8,12.9
	c-1.1,3.9-3.2,7.3-5.1,10.8c-3.3,5.8-6.5,11.6-9.4,17.6c-1.4,2.8-3.4,5.3-5.4,7.8c-1.1,1.4-2.1,2.8-2.9,4.3
	c-1.3,2.4-2.8,4.6-4.8,6.5c-0.5,0.4-1,0.9-1.3,1.4c-3.6,6-8.7,10.9-12.9,16.5c-3.6,5-7.4,9.9-11.2,14.8c-0.4,0.5-0.8,1-1.3,1.4
	c-4.3,3.6-7.6,8.2-11.2,12.4c-3,3.5-6.2,6.8-9.4,10.2c-0.8,0.8-1.4,1.7-2,2.7c-0.6,0.9-1.4,1.8-2.4,2.3c-4.2,1.8-7.3,5.1-10.9,7.6
	c-3.7,2.5-7.2,5.2-10.8,7.8c-3.8,2.8-8.2,5.1-10.6,9.4c-3.4,2.8-6.8,5.7-10.4,8.4c-5.6,4.2-11.2,8.3-16.8,12.4
	c-1.1,0.9-2.1,1.9-3.1,3c-3.4,3.6-7.1,6.9-11,9.9c-1.1,0.9-2.3,2-3.6,2.4c-3.4,1.1-6.2,3.2-9.1,5.2c-3.5,2.5-7.3,4.6-11.5,5.7
	c-1.2,0.3-2.1,0.7-2.2,2.1c-10.1,3.5-18.3,10.5-28,14.8c-4.3,2-8.5,4.3-12.3,7.2c-29,0-58,0-87.2,0c0-37.1,0-74.1,0-111.2
	c5.6-4.8,10.1-10.5,14.7-16.2c4.9-6,10.7-11.3,14.6-18.1c5.1-8.9,12-16.5,18.3-24.4c2.9-3.7,7.5-5.7,10.7-9.4c2.2-2.5,4.2-5,5.8-8.1
	c2.1-4.2,5.7-7.5,8.5-11.3c2.6-3.5,6-6.6,6-11.5c6-2.2,10-7.1,14.7-11c7-5.9,14.5-10.5,22.8-14.4c7-3.2,13.4-7.9,20.3-11.5
	c6.6-3.5,11.6-8.8,16.4-14.3c2.6-3,5.4-5.9,9-7.7c2.4-1.2,3.7-3.1,5.1-5.4C169.3,912.8,169.9,908.8,174.2,908.3z"/>
<path class="st4" d="M842.6,466.7c-0.2,0.1-0.4,0.2-0.6,0.3c-5.6,2.6-11.3,5.1-16.9,7.8c-6.3,3.1-13.1,4.9-19.1,8.5
	c-0.5,0.3-1.2,0.5-1.8,0.6c-2.7,0.6-5,2-7.3,3.4c-1.5,0.9-3,1.7-4.6,2.4c-2.9,1.3-5.9,2.5-8.4,4.4c-5.4,3.9-11,7.5-16.6,11.1
	c-3.3,2.1-6.8,4.2-9.6,7.1c-3.2,3.3-6.3,6.5-10.3,9.1c-5.6,3.6-10.4,8.3-15.5,12.7c-2.2,1.9-4.2,3.8-6.2,5.9c-2,2-4,4.1-5.7,6.3
	c-2.9,3.7-5.6,7.7-8.5,11.5c-1.2,1.6-2.7,3.1-3.7,5c-5.5,10.4-11.1,20.8-16.7,31.3c-0.8,1.6-1.5,3.1-1.7,4.9
	c-0.8,5.2-1.8,10.4-2.6,15.5c-0.2,1.3-0.4,2.5-0.3,3.8c0.3,4,0.7,8,4.8,10.2c1.1,0.6,1.9,1.7,2.8,2.5c4.4,3.9,9.3,6.5,15.4,6.8
	c2.5,0.1,5.1,0.4,7.5,1c4.4,1.2,8.6,3.1,13.2,3.9c0.5,0.1,0.9,0.3,1.3,0.5c4.4,2,9.2,2.3,13.7,3.9c0.4,0.1,0.9,0,1.4,0
	c5.4-0.4,10.8-0.8,16.1-1.4c4.6-0.5,9-1.8,13.7-2.1c2.4-0.1,4.7-0.7,7-1.3c2-0.6,4-0.8,6.1-0.7c2.5,0.1,5.2,0.4,7.6,0
	c2.4-0.4,4.7-0.4,7.1-0.4c2.1,0,4.2,0.1,6.2-0.3c6.4-1.2,13-1.2,19.5-1.8c2.8-0.3,5.7,0,8.6,0.1c1.2,0,1.5,0.7,1.1,2
	c-0.2,0.6-0.6,1.1-0.9,1.7c1.2,0.5,2.3,0.5,3.3,0.2c0.2-21.4,0.4-42.9,0.6-64.3V466.7z"/>
<path class="st4" d="M264.9,477.1c-1.1-2.3-2.1-4.7-2.6-7.1c-1-4.5-1.3-9.1-2.8-13.5c-0.1-0.4-0.1-0.9-0.2-1.4
	c-0.3-4.8-2.3-9.2-3.1-13.9c-0.1-0.4-0.4-0.9-0.7-1.3c-2.9-4.5-5.7-9.1-8.8-13.6c-2.6-3.8-5.8-7.1-8.3-11.1c-1.2-2-2.8-3.8-4.5-5.6
	c-1.5-1.5-2.6-3.2-3.5-5.1c-1.1-2.3-2.1-4.7-3.6-6.7c-1.5-1.9-2.6-4-3.8-6.1c-1-1.8-1.9-3.7-3.2-5.3c-4.1-5.1-7.2-10.9-10.8-16.3
	c-1.6-2.4-2.7-5.1-3.9-7.6c-0.5-1.1-0.1-1.7,1.3-1.9c0.6-0.1,1.3,0,1.9,0c-0.5-4.3-4.6-4.8-7.3-6.5c-2.3-1.4-4.2-2.6-5.4-5.1
	c-1.8-3.6-4.7-6.4-7.7-9c-5.5-4.8-10.8-9.8-14.3-16.4c-3.6-6.9-8.3-13.3-11.5-20.3c-3.9-8.3-8.5-15.8-14.4-22.8
	c-3.9-4.7-8.8-8.7-11-14.7c-4.9,0.1-7.9-3.3-11.5-6c-3.8-2.8-7.1-6.4-11.3-8.5c-3.1-1.6-5.6-3.5-8.1-5.8c-3.6-3.2-5.7-7.8-9.4-10.7
	c-8-6.3-15.5-13.2-24.4-18.3c-6.8-3.9-12.1-9.7-18.1-14.6c-5.7-4.6-11.4-9.1-16.2-14.7h-38v192.5c0,1.3,0,2.6-0.1,3.8
	c3.1,2.5,5.1,6.1,7.4,9.2c2.7,3.6,5.3,7.1,7.8,10.8c2.5,3.7,5.9,6.7,7.6,10.9c0.4,1,1.3,1.8,2.3,2.4c0.9,0.6,1.9,1.2,2.7,2
	c3.3,3.2,6.7,6.4,10.2,9.4c4.2,3.6,8.7,6.9,12.4,11.2c0.4,0.5,0.9,0.9,1.4,1.3c4.9,3.7,9.8,7.5,14.8,11.2
	c5.7,4.1,10.5,9.2,16.5,12.9c0.5,0.3,1,0.8,1.4,1.3c1.8,2.1,4.1,3.5,6.5,4.8c1.5,0.9,2.9,1.9,4.3,2.9c2.5,1.9,5,4,7.8,5.4
	c6,2.9,11.8,6.1,17.6,9.4c3.5,1.9,6.9,4,10.8,5.1c4.4,1.3,8.8,2.5,12.9,4.8c5.8,3.2,12.3,5.3,18.5,7.7c2.7,1,5.4,1.9,8.1,2.7
	c2.7,0.8,5.5,1.6,8.3,2.1c4.7,0.8,9.4,1.3,14.1,2c2,0.3,4,0.9,6.1,0.9c11.8-0.1,23.6,0,35.4,0c1.8,0,3.5-0.2,5.2-0.8
	c5-1.7,10-3.3,15-5c1.2-0.4,2.4-0.9,3.5-1.5c3.4-2.1,6.7-4.3,6.8-9.1c0-1.2,0.6-2.5,0.9-3.7C267.5,488.2,267.5,482.6,264.9,477.1z"
	/>
<path class="st5" d="M292,1189.9c-0.4-7.8,0.5-15.6,1.5-23.4c0.1-0.9,0.3-1.9,0.3-2.9c-0.1-7.1,2-13.9,3.6-20.7
	c2.2-8.8,5-17.5,8-26.1c0.6-1.8,1.2-3.7,1.4-5.6c0.9-7.7,3.3-15,5.6-22.2c3.4-10.7,5.8-21.5,8.4-32.4c0.9-4,1.8-8.1,3-12.1
	c0.9-2.9,2.2-5.6,3.4-8.4c3.2-7.2,6.5-14.2,9.5-21.4c2.1-5,4.8-9.7,7.4-14.5c7.6-13.7,15.4-27.2,23.1-40.8c4.5-7.9,9-15.8,13.4-23.8
	c1.9-3.5,4.3-6.7,7-9.7c7.3-7.9,15-15.2,23.4-21.9c3.7-3,7.4-6,11.2-8.9c3.4-2.6,7.6-3.2,11.5-4.4c1.4-0.4,2.8,0,4.2,0.7
	c6.8,3.3,13.2,7.1,17.5,13.7c0.5,0.8,1.3,1.6,1.4,2.5c0.5,3.7,2,7.1,3,10.6c2.3,8,3.9,16.1,5.8,24.2c1.5,6.2,3,12.4,4.6,18.6
	c1.5,6,2.7,12.1,3.3,18.3c0.4,4.1,1.5,8.1,2.1,12.2c0.9,6.1,2.4,12.2,2.6,18.4c0.1,4.3,1,8.6,2,12.7c0.7,3.3,0.9,6.6,0.9,10
	c0,3.5,0,7,0,10.5c0,4.5-0.2,8.9-1,13.3c-1.5,8.3-2.1,16.8-2,25.2c0.1,8.2-1.2,16.2-3.4,24.1c-1.1,4.1-2.4,8.3-2.4,12.7
	c0,2.1-1.1,4-1.7,6c-0.3,1.1-0.8,2.1-1.1,3.2c-0.1,0.4,0,1,0.5,1.1c0.2,0.1,0.6-0.2,0.8-0.4c1.4-2.3,2.7-4.7,4.1-7
	c3.8-6.8,7.7-13.6,11.5-20.4c1.3-2.2,2.8-4.3,4.7-6c0.6-0.5,1.1-1.2,1.7-1.7c5.2-4.7,9.8-10,13.5-16.1c1-1.6,2.4-2.9,3.8-4.2
	c4-3.7,7.9-7.4,11.6-11.4c4-4.4,9.1-7.5,13.5-11.4c5.4-4.8,11.7-8.2,17.5-12.5c0.9-0.7,1.9-1.2,3.1-1.2c1.2,0,2.2,0.3,2.9,1.4
	c2,3.1,3.1,6.7,3.6,10.3c1.5,10,2,20,0.5,30c-0.2,1.1-0.2,2.2-0.2,3.3c0,2.2-0.2,4.5-0.1,6.7c0.5,11.1-0.8,22-3.1,32.8
	c-1.6,7.3-3,14.7-4.3,22.1c-1.2,6.6-2,13.2-3.3,19.8c-1.2,6.1-2.8,12.1-4.1,18.2c-0.6,3-1,6-1.5,8.9
	C461.3,1189.9,376.7,1189.9,292,1189.9z"/>
<path class="st2" d="M569.9,186.6c0.9-0.7,1-1.6,0.9-2.6c-0.1-4.8,0.3-9.6-0.3-14.3c-0.1-0.8,0.1-1.6,0.1-2.3c0-1.8,0.4-3.6-0.1-5.2
	c-0.9-3.2-0.8-6.3-0.8-9.5c0-26,0-52,0-78c0-1.4,0.3-3-0.1-4.3c-0.9-2.4,0-4.3,1-6.3c0.5-1,0.9-2,1-3.1c0.5-3.4,2.3-5.4,5.5-5.5
	c5.4-0.1,10.8-0.3,16.2,0.4c7.3,0.9,14.2,3.5,21.1,5.6c2.9,0.9,5.8,1.6,8.7,2.6c5.4,2,10.6,4.2,15.9,6.3c0.3,0.1,0.6,0.2,0.9,0.4
	c3.7,2.9,8.1,4.4,12.1,6.5c2.8,1.5,5.8,2.7,8.4,4.6c1,0.7,2.2,1.3,3.4,1.7c2.9,1.1,4.9,0.3,6.4-2.4c0.4-0.7,0.6-1.5,1-2.2
	c0.6-1.3,1-2.7,1.7-3.9c2.4-4.1,3.3-8.6,4.1-13.1c1-5.8,1.4-11.6,2.8-17.3c0.2-0.9,0.2-1.9,0.2-2.9c-0.3-3.7,0.4-7.3,1.1-10.9
	c0.4-2,0.9-4,0.9-6.1c0-0.9,0.4-1.8,0.7-2.7c2.5-6.8,5.1-13.7,7.7-20.5c0.1-0.3,0.1-0.6,0.1-0.9c14.1,0,28.1,0,42.2,0
	c11,3.8,20.6,9.8,29.1,17.9c2.6,2.4,6,3.8,7.9,7.2c1.4,2.6,4.8,2.1,7.2,3.2c6.6,5.5,14.5,9.1,21.2,14.6c9.5,7.7,19.9,14.2,29.4,22
	c3.7,3,4.5,2.8,6.1-1.9c2.2-6.7,4-13.4,4.5-20.5c0.2-2.6-0.5-6.4,3.9-7.1c0,75.1,0,150.1,0,225.2c-1,1-2.3,1.6-3.7,2
	c-13,3.1-25.9,6.3-38.7,10c-4.5,1.3-9.4,3.5-14.3,0.7c-1.4-2-1.1-4.3-1.1-6.5c0-10.7-1.5-21.3-2.3-31.9
	c-1.4-19.3-9.7-35.8-17.9-52.6c-2.2-4.5-6-7.9-8.8-11.9c-6.5-9.4-11.9-19.5-19-28.6c-3.6-4.6-5.6-4.8-9,0.1c-1.7,2.5-3.7,4.8-5.8,7
	c-3.3,3.5-6.2,7.3-7.4,12.1c-0.8,3.2-3.4,5.3-5.2,8c-9.4,14-15.1,29.5-19.2,45.6c-2,7.9-5.7,15.2-8.2,23c-1.8,5.7-3.2,11.3-2.9,17.4
	c0.2,4.1-0.9,7.9-1.9,11.8c-0.4,1.6-1,3.2-3.1,3.1c-1.9-0.1-2.6-1.5-3.1-3.2c-3.5-11.6-6.5-23.3-7-35.6c0-1.4,0-2.9-0.5-4.3
	c-5-14.7-4.4-30.2-7.3-45.2c-1.8-9.4-2.5-19-4.7-28.3c-2.3-9.9-6.2-19.4-10.9-28.5c-2.4-4.8-4.7-9.8-7.2-14.6
	c-0.7-1.4-1.3-3.2-3.2-3.1c-1.9,0-2.5,1.8-3.2,3.2c-1.8,3.1-1.7,6.4-1.7,9.8c0,43.4-0.1,86.9,0.1,130.3c0,8.6-2.1,17.2-0.3,25.8
	c0.3,1.5-0.3,3.2-0.7,4.7c-0.7,3.2-2.5,4.3-5.6,3.1c-0.6-0.2,0.2-0.1-0.4-0.2c-9.3-1.2-13.1-6.6-15.5-15.6
	c-4.6-17.1-11.7-33.4-19.5-49.5c-4.3-8.9-7.8-18.1-12.3-26.9C569.9,190.7,568.5,188.8,569.9,186.6z"/>
<path class="st6" d="M577.6,0.7c1,1.6,1.3,3.2,0.4,5c-1.7,3.2-2.4,6.5-2.4,10.1c0,1.1-0.2,2.3-0.8,3.2c-1.6,2.6-2,5.7-3.3,8.3
	c-1.5,3-3,6-4.2,9.1c-1.2,3.1-3,6-5.5,8.3c-2,1.9-3.6,4.1-5,6.4c-1.2,1.9-2.2,3.9-3.9,5.4c-0.7,0.7-1,1.6-1.2,2.5
	c-0.1,1.1-0.2,2.3-0.7,3.2c-2.8,5-3.6,10.5-5,15.9c-0.7,2.5-1.6,4.8-3,7c-1.2,1.9-2.2,3.9-3.4,5.8c-1.6,2.6-3.2,5.1-4.9,7.6
	c-2,3.1-4.1,6.1-6.1,9.1c-0.2,0.3-0.4,0.5-0.5,0.8c-1.1,5.3-5.3,8.5-8.4,12.5c-2.6,3.4-5.2,6.8-7.6,10.4c-1.7,2.5-3.4,5-5.1,7.5
	c-0.6,0.9-1,2-2.1,2.6c-0.6,0.3-1.1,0.8-1.1,1.5c0.2,2.7-1.7,4.3-3.2,6.1c-0.8,0.9-1.6,2-2.1,3.2c-2,4.6-5.4,8.4-8.7,11.9
	c-2.9,3.1-5.6,6.4-9.1,9c-4.5,3.3-8.3,7.4-12.4,11.2c-2.3,2.1-4.1,4.9-7.5,5.7c-0.1,0-0.3,0.2-0.4,0.3c-5.6,5.9-13.1,8.9-19.5,13.6
	c-2.7,2-5.6,3.7-8.6,5.1c-1.1,0.5-2.2,1.2-3.2,2c-1.5,1.3-3.1,2.2-5.1,2.5c-0.5,0.1-1,0.1-1.4,0.4c-4.2,2.7-9.1,3.6-13.6,5.6
	c-4.9,2.2-10.2,2.3-15.2,3.5c-3.5,0.8-7.2,1.2-10.8,1.8c-0.3,0.1-0.6,0.1-0.9,0.1c-9.1,0-18.1,1.6-27.2,1.1c-2.7-0.1-4.9-1-6.8-2.9
	c-2.9-3-5.6-6.1-7.4-9.9c-0.3-0.6-0.5-1.2-0.9-1.7c-2.3-2.5-4.1-5.2-4.7-8.6c-3.5-5.3-4.8-11.4-6.3-17.4c-1.5-6.5-3-13-4.5-19.5
	c-0.2-0.9-0.6-1.9-0.6-2.8c0-4-1.1-7.9-2-11.7c-0.6-2.3-1.2-4.6-1.1-7.1c0-0.5,0.1-1.1-0.1-1.4c-2.3-3.7-1.8-8-2.6-12
	c-0.8-3.9-1.2-7.9-2-11.7c-0.6-3.1-0.8-6.3-1.1-9.5c-0.4-4.1-1.5-8.1-2.2-12.2c-0.1-0.8-0.4-1.6-0.4-2.3c0.2-6.9-1.3-13.6-1.1-20.5
	c0.1-2.2-0.2-4.4-1.1-6.5c-1.3-3-0.9-6.3-0.4-9.4c0.3-1.7,0.5-3.5,0.6-5.2c0-1.9,0-3.8,0.7-5.7c0.3-0.7,0.3-1.6,0.3-2.4
	c-0.3-4.5,0.8-8.9,1-13.3c0-0.8,0.1-1.7,0.4-2.3c2.4-4.8,3.8-10.1,6.7-14.7c0.6-0.9,1.2-1.9,1.4-3c1-3.5,3.5-6.1,5.3-9
	c0.5-0.9,1.3-1.4,2.4-1.5c0.8-0.1,1.6-0.2,2.1-0.9C412.8,0.7,495.2,0.7,577.6,0.7z"/>
<path class="st2" d="M159.8,0.7c-0.2,3.2,2.2,4.8,4,6.7c1.6,1.6,3.4,2.8,4,5.2c0.2,0.7,0.9,1.3,1.4,1.9c1.2,1.1,2,2.4,2.7,3.9
	c0.3,0.7,0.7,1.6,1.3,2c2.6,1.4,2.8,4,3.4,6.4c0.7,3.3,1.7,6.5,3.3,9.4c1,2,1.7,4.1,2,6.3c0.1,1.1,0.5,2.2,0.8,3.2
	c0.3,0.9,0.9,1.8,0.8,2.7c-0.1,3.5,1.5,6.5,2.6,9.6c1,2.7,1.8,5.5,1.5,8.4c0,0.5-0.1,1,0.1,1.4c1.5,4.5,0.8,9.2,0.9,13.8
	c0.1,17.9,0,35.7,0,53.6c0,6.4-1.5,12.6-3.8,18.6c-0.8,2.1-1.6,4.1-2.1,6.3c-0.4,1.8-1.3,3.6-2,5.3c-1.6,4.3-4.1,8.2-5.9,12.4
	c-0.8,1.8-1.5,3.5-2.8,4.9c-0.7,0.8-1.2,1.9-1.5,3c-0.3,1.1-0.8,2.1-1.6,2.9c-0.8,0.8-1.3,1.8-1.4,2.9c-0.1,0.6-0.3,1.4-0.7,1.7
	c-3.5,2.9-5.2,7.2-8.7,10c-1.7,1.4-3.2,3.1-4.4,5c-1,1.6-2.6,2.8-3.9,4.1c-0.4,0.4-1.1,0.9-1.7,0.8c-2.3-0.1-3.4,0.9-4.2,3
	c-0.5,1.4-2,2-3.6,1.9c-1.6,0-3.2,0-4.8,0c-1,0-2-0.2-2.9,0.1c-2.8,1-5.7,0.8-8.5,0.8c-1.8,0-3.5,0.2-4.6,1.9
	c-0.5,0.7-1.3,0.9-2.1,1c-3.7,0.2-7.1,1.4-10.5,2.9c-2.6,1.2-5.4,2-8.1,2.8c-1.3,0.3-2.4,0.7-3.2,1.9c-1.1,1.6-2.8,2.2-4.6,2
	c-3.4-0.2-6.2,1.2-8.7,3.3c-1.9,1.6-3.9,2.6-6.5,2.5c-0.9,0-2.2-0.1-2.8,0.4c-2.7,2.8-6.7,2.7-9.8,4.7c-2.1,1.4-4.6,2.3-6.8,3.5
	c-3.1,1.7-6.8,1.6-9.8,3.7c-0.3,0.2-0.9,0.2-1.4,0.2c-3.9-0.3-7.5,0.9-11.2,1.8c-2.3,0.6-4.6,1.4-7,1.2c-0.6-0.1-1.4,0-1.8,0.4
	c-2.4,1.9-5.4,1.7-8.1,2.3c-1.5,0.4-3.2,0.6-4.6,1.2c-3.8,1.6-7.7,2.1-11.7,1.8c0-78.6,0-157.2,0-235.7c0.8-1.6,2.3-2.3,3.9-2.1
	c8.4,1.1,15.4-3.2,22.9-5.6c5-1.6,9.9-3.6,14.9-4.8c8.9-2,16.8-6.5,25.3-9.6C98.5,0.7,129.1,0.7,159.8,0.7z"/>
<path class="st7" d="M785.5,273.8c1,0,1.9,0,2.9,0.1c0.5,0,1,0.4,1.4,0.3c4.4-1.9,9.4-1.2,13.7-3.4c4.3-2.2,9.1-2.6,13.7-3.7
	c3.1-0.7,6.2-1.4,9.2-2.4c3.6-1.2,7.2-2.4,11-2.6c1.6-0.1,3-1.1,4.6-0.9c0,64.8,0,129.7,0,194.5c-6.3-0.8-12.4-2.6-18.3-4.8
	c-6.1-2.2-12.2-4.6-18.5-6.2c-5.1-1.3-10.1-2.7-15-4.8c-1.2-0.5-2.5-0.5-3.8-0.5c-4.6,0-9.3,0-13.9,0c-1,0-1.9,0-2.9,0
	c-2.3,0-4-1-4.9-3.1c-0.9-1.9-1.9-3.7-2.5-5.7c-1.2-4-3-7.7-5.4-11.1c-2.5-3.5-4.6-7.3-5.4-11.6c-0.3-1.4-0.9-2.7-1.4-4.1
	c-0.8-2.1-1.2-4.3-1.1-6.6c-2.1-2.9-1.3-5.9,0.1-8.6c3.8-7.2,5.8-15.1,9.3-22.4c0.6-1.3,1.1-2.7,1.2-4.1c0.6-7,1.1-14,5.7-19.8
	c0.9-1.1,0.6-2.8,0.7-4.2c0.1-1.4-0.1-3.2,1-4.1c6.2-5.2,6.8-13.1,9.6-19.8c4.7-11.4,7.1-23.3,7.2-35.7
	C783.9,277,784.1,275.1,785.5,273.8z"/>
<path class="st3" d="M79.3,980.3c1.9,1.8,2,1.9,1,3.4c-1.4,2.3-3.3,4.3-4.4,6.8c-0.3,0.7-1,1.3-1.7,1.6c-1.5,0.8-2.5,1.8-2.6,3.7
	c-0.1,1.6-1.2,2.6-2.5,3.3c-2,1-3.1,2.6-3.6,4.8c-0.5,2.1-1.6,3.7-3.1,5.2c-2.4,2.3-4.7,4.7-7.1,7.1c-0.8,0.8-1.6,1.8-2.6,2
	c-2.5,0.6-3.7,2.3-4.6,4.4c-0.6,1.4-1.6,2.4-2.6,3.4c-3.7,3.6-6.5,7.8-9.6,11.8c-1.8,2.2-3.2,4.8-4.5,7.3c-1.2,2.2-3.5,3.8-4,6.4
	c-0.1,0.5-0.8,0.9-1.3,1.3c-0.5,0.4-1.4,0.7-1.5,1.1c-0.6,3-3.4,4-5.2,5.9c-1.4,1.5-3,2.9-3.8,4.9c-0.4,0.9-0.9,1.7-1.6,2.4
	c-2.7,2.9-5.7,5.6-7.9,8.9c-1.1,1.7-2.7,3.2-5.2,2.9c0-64.8,0-129.7,0-194.5c0.6-0.5,1.2-0.7,2-0.6c12.6,7.2,23.6,16.1,31.9,28.2
	c4.1,5.9,8.4,11.7,12.3,17.7c4.6,7.1,7.7,15,11.4,22.5c3.1,6.3,5.3,13,10.2,18.3c2.2,2.4,4.2,4.8,7.1,6.3
	C77.1,977.5,78.6,978.5,79.3,980.3z"/>
<path class="st4" d="M791.3,1150.6c0.1-0.3,0-0.8,0.2-0.9c2-1.1,2.8-3.2,4-4.9c0.8-1.1,1.7-2.3,2.6-3.4c0.6-0.8,1.3-1.4,1.7-2.3
	c2.5-5.4,6.4-9.7,10.6-13.9c1-1,1.7-2.3,2.6-3.4c3.2-4.1,6.2-8.4,9.6-12.4c2.5-3,5.2-6,8.2-8.6c1.9-1.7,2.2-4.3,4.1-5.7
	c1.8-1.3,3.7-2.4,4.7-4.6c0.4-1,1.4-1.7,2.4-2.2c0,33.9,0,67.7,0,101.6c-23,0-46,0-69,0c0.1-1.5,0.8-2.8,1.6-3.9
	c1.8-2.3,2.9-4.9,3.7-7.7c1.5-5.2,4.2-9.9,7-14.5c1.6-2.7,3.3-5.4,5.1-8c0.8-1.2,1-2.7,1.5-4C792,1151.5,791.5,1151,791.3,1150.6z"
	/>
<path class="st8" d="M776.9,29.5c-1,0-1.9,0.1-2.8-0.1c-3-0.6-5.9-1.6-6.7-5.1c-0.3-1.4-1.1-2.2-2.5-2.5c-2.4-0.6-4.1-2.3-5.8-3.9
	c-5.1-4.8-10.5-9.1-16.9-12c-1.7-0.8-3.5-1.5-5.3-2c-1.8-0.5-3.1-1.4-4-3.1c36.4,0,72.8,0,109.2,0c0,8,0,16,0,24
	c-6.7,3.9-13.5,7.4-21.5,8.4c-14.1,1.8-27.8,0.2-41.6-2.5C778.2,30.4,777.5,30,776.9,29.5z"/>
<path class="st9" d="M165.5,1189.9c0.6-1,1.8-1.3,2.7-1.8c1.6-0.8,3.1-1.6,4.4-2.8c1.1-0.9,2.4-1.6,3.7-2.2c5.4-2.4,10.3-5.6,15-9
	c0.9-0.7,1.8-1.2,2.9-1.6c4.6-1.5,8.7-3.7,12.9-6.1c3-1.8,6-3.5,9.3-4.9c2.9-1.2,5.8-2.6,8.4-4.4c1.6-1.1,3.3-1.8,5.1-2.7
	c4.1-2,4-2,7.6,0.7c2.2,1.7,3.4,4.2,5.1,6.3c2.2,2.7,3.9,5.8,5.9,8.7c0.3,0.4,0.5,0.8,0.7,1.3c1.8,5.8,5.2,10.9,7.7,16.4
	c0.3,0.7,0.5,1.5,0.7,2.3C226.9,1189.9,196.2,1189.9,165.5,1189.9z"/>
<path class="st10" d="M842.1,784.6c-1.2-0.1-2.4-0.5-2.6-1.7c-0.4-1.9-1.7-3-2.9-4.3c-3-3.1-6-6.2-9.2-9.1c-2-1.8-2.8-4.8-5.8-5.5
	c-0.3-0.1-0.5-0.7-0.7-1.2c-0.3-1-0.8-1.8-1.6-2.3c-3.3-2.1-5.1-5.6-8-8.1c-4.3-3.6-7.4-8.3-10.8-12.7c-0.1-0.1-0.2-0.3-0.3-0.4
	c-2.7-4.2-1.3-8.2,3.6-9.1c4.2-0.7,8.3-2.2,12.7-2.2c0.5,0,1,0,1.4-0.1c4.5-1.7,9.3-2,13.9-3.4c3.4-1,6.8-1.6,10.2-2.2
	C842.1,743,842.1,763.8,842.1,784.6z"/>
<path class="st11" d="M776.9,29.5c1.7,0,3.5,0,5.2,0c1.5,0,2.8,0.2,4.1,0.9c1,0.5,2.1,1,3.1,1c6.3,0,12.6,1.6,18.9,1.1
	c3.8-0.3,7.6,0.4,11.3-0.9c0.3-0.1,0.6-0.1,0.9-0.1c4.2,0.7,7.6-1.5,11.2-3c2.6-1.1,5.2-2.3,7.9-3.4c0.7-0.3,1.6-0.2,2.3-0.3
	c0,3.8,0,7.7,0,11.5c-0.7,0.4-1.4,0.8-1.6,1.6c-0.5,1.8-1.1,3.7-1.2,5.6c-0.1,6.4-1.7,12.5-3.7,18.6c-0.5,1.5-0.9,3.1-1.2,4.6
	c-0.3,1.2-1,2-1.9,2.6c-0.9,0.6-1.8,0.7-2.7,0c-1.1-0.9-2.2-1.9-3.1-2.9c-1.5-1.6-3.2-3-5.2-4.2c-2.7-1.6-5.5-3.1-7.6-5.6
	c-0.5-0.6-1.3-1-2-1.3c-3.1-1.3-5.8-3.3-8-5.9c-1.3-1.5-2.9-2.5-4.5-3.5c-2.7-1.6-5.5-3.2-7.6-5.6c-0.6-0.7-1.5-1.1-2.4-1.5
	c-3.9-1.8-7.3-4.5-10.9-6.8C777.6,31.2,776.9,30.6,776.9,29.5z"/>
<path class="st4" d="M67.8,0.7c-0.3,0.7-0.8,1.4-1.6,1.7c-1.4,0.7-2.9,1.3-4.3,2c-8.5,4.4-17.8,6.6-27,9.3c-2.7,0.8-5.3,2.1-8.1,3
	c-3.8,1.1-7.7,2.1-11.1,4.2c-1.1,0.7-2.4,0.8-3.7,0.8c-2.2,0-4.5,0-6.7,0c-1.6,0-3.2,0.1-4.6,1c0-7.3,0-14.7,0-22
	C23.1,0.7,45.4,0.7,67.8,0.7z"/>
<path class="st2" d="M87.9,1189.9c0-1.2,0.6-2.1,1.6-2.7c3.3-1.8,6.4-3.9,9.9-5.5c4.9-2.3,9.7-4.6,14-8c2.2-1.7,4.8-3.1,7.3-4.3
	c2.2-1.1,4.9-1.1,7.4-1.6c0.6,0.2,1.3,0.2,1.8,0.6c3.2,2.4,6.7,4.2,10.2,6c0.8,0.4,1.8,0.9,2.3,1.6c2.5,3.9,6.1,6.8,9.3,10.1
	c1.1,1.1,1.5,2.3,1.4,3.8C131.4,1189.9,109.6,1189.9,87.9,1189.9z"/>
<path class="st3" d="M0.7,690.7c2-0.6,3.9-0.6,5.9,0.4c1.6,0.9,3.5,1.3,5.5,1.6c2.7,0.3,5.2,1.2,7.5,2.9c3.4,2.6,6.9,5,10.3,7.6
	c0.4,0.3,0.8,0.6,1,1c3,4.2,7.2,7,11,10.3c-1.8,2.2-4.3,3.1-7,3.5c-3.8,0-7.7-0.3-11,2.2c-0.4,0.3-0.9,0.4-1.4,0.4
	c-7.3-0.2-14.5,1.5-21.8,0.9C0.7,711.1,0.7,700.9,0.7,690.7z"/>
<path class="st12" d="M842.1,881.3c-0.8,0-1.6-0.2-2.2-0.8c-2.3-2.4-5.2-4.2-7.8-6.2c-2.8-2-4.9-4.5-5.6-8c-0.4-1.7-1-3.3-1.4-5
	c-0.4-1.9-0.6-3.9,0.3-5.6c1.2-2.3,1.4-4.9,2-7.3c1-4.3,2-8.6,3.8-12.6c0.3-0.6,0.3-1.2,0.4-1.9c0.1-1.8,0.9-3.3,1.9-4.8
	c1.4-2,2.6-4,3-6.4c0.1-0.5,0.1-1.1,0.4-1.3c1.9-1.9,2.6-4.2,2.6-6.9c0-1.5,1.3-2.1,2.7-2.1C842.1,835.4,842.1,858.4,842.1,881.3z"
	/>
<path class="st13" d="M0.7,721.3c0.9-0.3,1.8-0.8,2.7-0.9c5-0.4,10-1.4,15-1c2.5,0.2,5,0.1,7.1-1.8c1-0.9,2.6-1.1,4-1
	c1.9,0,3.8,0,5.7,0c-3.2,3.7-7.7,4.6-12.2,5.2c-4.6,0.6-9.2,1.3-13.8,1.1c-3.7-0.2-5.1,1.8-5.1,5.3c0,1.8,0,3.5,0,5.3
	c0,47.5,0,95.1,0,142.6c0,2.8,0.7,5.8-1.5,8.2c-0.6,0-1.3,0-1.9,0C0.7,829.9,0.7,775.6,0.7,721.3z"/>
<path class="st3" d="M785.5,273.8c-0.1,1.4-0.2,2.9-0.3,4.3c0,0.5-0.4,0.9-0.3,1.4c1.1,6.9-1.2,13.4-2.4,20.1
	c-0.3,1.7-0.9,3.4-0.8,5.1c0.1,1.3-0.2,2.6-1,3.6c-1.3,1.7-1.7,3.7-2.3,5.6c-0.8,2.6-1.7,5.1-3,7.5c-1.7,3.2-2.8,6.7-3.3,10.4
	c-0.2,1.3-0.9,1.7-2.3,1.8c-1.7,0-2.2,0.7-2.4,2.3c-0.2,2.4,0.2,4.9-0.5,7.1c-0.6,2-2.7,3.5-3.6,5.5c-1,2.1-1.8,4.4-1.7,6.9
	c0.1,3-0.2,6-1,9c-0.2,0.8-0.1,1.7-0.6,2.3c-1.7,2-2,4.7-3.3,6.8c-1.3,2.1-0.3,4.5-1.4,6.4c-1.1,1.7-2.7,3.1-3.2,5.2
	c-0.2,0.8-0.4,1.6-0.8,2.2c-2,3.1-2.4,6.5-2.2,10.1c-0.8,0.1-1.5,0.4-1.8,1.3c-1.6,5.5-3.8,10.8-5.1,16.4c-1.1,4.9-2.4,9.9-4.8,14.4
	c-1.4,2.5-2.4,5.2-2.7,8.1c-0.3,2.4-1.3,4.6-2.3,6.7c-2.6,5.6-4.8,11.4-6.5,17.4c-1.6,5.5-3.1,11.1-6.6,15.8
	c-0.6,0.8-0.7,1.7-0.9,2.7c-1.3,5-3.3,9.5-6.1,13.9c-3.1,4.9-7,9-10.2,13.8c-1.4,2.1-2.8,4.3-3.8,6.6c-1.3,2.7-3.1,4.9-5.5,6.4
	c-1.2,0.8-2.3,1.8-3.3,2.8c-1,1-2.1,1.9-3.4,2.5c-0.7,0.3-1.5,0.6-2.1,1.2c-3.3,3.2-7.7,4.3-11.6,6.4c-3.7,1.9-7.6,3.1-11.2,5.3
	c-2.4,1.5-5.3,2-8.2,2.2c-4.3,0.2-8.5-0.8-12.8-1.2c-1.1-0.1-2.2-0.5-3.2-1c-5.4-3-11.6-4.4-17.1-7.3c-3.7-1.9-7.1-4.2-9.6-7.6
	c-7.3-10.1-14-20.5-20.4-31.1c-1.7-2.9-3.7-5.6-5.8-8.1c-3.4-3.9-5.5-8.5-7.4-13.2c-1.8-4.6-4.1-8.9-7-12.9
	c-1.2-1.7-2.3-3.4-3.2-5.3c-2.8-5.5-6.4-10.6-8.5-16.6c-0.9-2.5-2.5-4.8-4-7c-3.1-4.7-5.1-9.9-6.7-15.2c-0.9-2.8-2.7-5.5-2.4-8.7
	c0-0.3-0.2-0.6-0.4-0.9c-3.7-6.1-5.2-12.9-7.2-19.6c-1.2-3.8-2-7.7-2.9-11.5c-0.1-0.6-0.3-1.3-0.6-1.8c-1.9-3.5-3-7.3-3.7-11.3
	c-0.3-2-1-4-1.6-6c-0.8-2.7-1.5-5.5-1.8-8.4c-0.2-2.2-0.6-4.4-1.9-6.3c-0.7-1-0.8-2-0.9-3.1c-0.5-4.9-1.7-9.6-3.6-14.2
	c-2.3-5.7-4.1-11.6-5.2-17.8c-0.6-3.7-2.3-7.2-3.5-10.8c-0.3-0.9-1-1.8-1-2.7c0.2-5.4-2.1-10.2-2.9-15.4c-0.1-0.8-0.2-1.6-0.1-2.4
	c0.3-3.7-0.4-7.3-1.8-10.7c-0.6-1.6-0.9-3.4-1.3-5.1c-0.6-2.6-1.8-5.1-2.7-7.6c-1.4-3.8-0.9-4.9,3.2-5.3c5.4-0.5,10.8-0.4,15.9,2.2
	c3.8,2,7.7,3.7,11.5,5.8c2.6,1.5,5,3.4,7.5,5.1c5,3.6,10.3,7.1,14.3,11.9c2.6,3.1,5.2,6,8,8.8c0.6,0.6,1.1,1.2,1.8,1.6
	c0.3,0.2,0.9,0.4,1.3,0.3c0.3-0.1,0.8-0.7,0.8-1c-0.1-3.8,0.7-7.6-0.5-11.4c-0.2-0.7-0.3-1.6-0.3-2.4c0.2-5.1-1.2-10.1-2.2-15
	c-0.5-2.6-1.7-5.1-2.1-7.8c-0.6-3.8-1.2-7.5-2.3-11.2c-0.3-1-0.1-2.2-0.1-3.3c-0.1-3,0.4-6.1-0.8-9c0.2-4.8-1-9.4-1.9-14.1
	c-0.5-2.5-0.9-5-1.4-7.5c-0.5-2.4-0.7-4.7-0.7-7.1c0-2.5,0.2-5.1-0.8-7.6c-0.1-0.3-0.2-0.6-0.1-0.9c0.5-4.3-1.1-8.5-1-12.8
	c0-2.1-1.2-4-0.9-6.1c0.2-1.3-0.1-2.6,1.2-3.4c0.8-0.5,2.9-0.1,3.8,1.3c1.8,2.8,4.7,4.8,5.8,8.1c0.3,1,1,2,1.7,2.9
	c2,2.7,3.5,5.6,4.1,9c0.3,1.8,1.3,3.6,2.7,4.9c1,3,1.8,6.1,4.1,8.5c0.9,0.9,1.6,2.2,1.6,3.4c-0.1,2.3,1,4,2.3,5.6
	c1.6,2.1,2.7,4.4,3.3,6.8c1.2,4.5,3.4,8.6,5.1,12.9c0.8,2.1,1.8,4.1,3.2,5.9c0.5,0.6,1.1,1.4,1.1,2.1c0,3.4,2.5,5.7,3.8,8.5
	c1.9,4.2,3.4,8.6,5,12.9c0.3,0.7,0.3,1.6,0.3,2.4c-0.1,2.7-0.2,5.4,2.5,7.2c0.6,0.4,0.9,1.3,1.1,2.1c0.8,4.2,2.7,8.2,3.1,12.5
	c0.1,1.5,1,2.3,2.2,2.8c1,0.4,2.1,1,3.2,1c3,0.2,5.5,1.4,8.1,2.7c1.6,0.8,2.4,0.3,2.8-1.3c0.2-1.1,0.4-2.2,0.6-3.3
	c0.5-1.7,0.4-3.4,0-5.2c-0.9-3.6-0.9-7.3,0-10.9c0.5-1.9,0.4-3.8,0.4-5.7c0-43.3,0-86.6,0-129.8c0-3.8,0-7.7,0-11.5
	c0-3.9,2.1-7,4.3-9.9c1.1-1.5,2.8-1.3,4.1,0.1c1.6,1.8,2.4,4.1,3.5,6.2c2.1,4.1,3.9,8.3,6,12.4c2,3.9,4.2,7.9,5.6,12.2
	c0.9,2.7,1.2,5.7,2.6,8.1c1.9,3.3,2.5,6.8,3.4,10.3c0.1,0.3,0.2,0.6,0.2,0.9c-0.3,4.2,1.5,8.2,1,12.3c-0.2,2.2,0.6,4.1,1.4,6
	c1.7,4.2,2.1,8.7,2.3,13.1c0.2,3.7,0.8,7.3,1.4,10.9c0.5,2.9,0.8,5.7,0.7,8.5c-0.1,3.3,0.5,6.3,1.6,9.3c1.2,3.6,2.1,7.3,3,11
	c0.3,1.1,0.2,2.2,0.2,3.3c0,1.6-0.1,3.2,0.5,4.7c0.3,0.7,0.4,1.6,0.4,2.3c-0.4,7.6,2.1,14.8,4.1,21.9c0.7,2.6,1.9,5,1.9,7.7
	c0,0.5,0.5,1.2,0.9,1.6c0.4,0.4,1.1,0.7,1.8,0.3c0.4-0.2,0.8-0.6,0.8-1c1.1-5.4,2.7-10.8,2.1-16.5c-0.4-4.4,1.1-8.5,2.4-12.6
	c1.5-4.8,3.2-9.6,5.4-14.2c1.3-2.7,2.1-5.7,2.7-8.6c0.9-4,2.6-7.8,3-11.9c0.1-0.5,0.3-0.9,0.6-1.3c2.4-3.9,3.4-8.1,4.2-12.5
	c0.1-0.7,0.7-1.4,1-2.1c1.9-3.5,4-6.9,5.5-10.6c0.6-1.5,1.3-3,2.5-4.1c1.1-1,1.7-2.3,2.3-3.6c0.9-2.1,2.1-3.9,3.8-5.4
	c1.1-1,1.9-2,2.1-3.6c0.6-4.8,3.6-8.4,6.7-11.8c2.6-2.8,5.7-5.2,7.1-8.9c0.1-0.3,0.4-0.5,0.6-0.7c4.4-4.5,6.6-4.1,9.6,0.9
	c1,1.7,2.1,3.2,3.3,4.6c1.3,1.6,2.4,3.3,3.5,5.1c1.1,1.9,1.9,4,4,5.2c1.4,0.8,2.2,2.5,2.3,4c0.2,1.7,0.9,3.1,1.9,4.3
	c3.1,3.4,5.1,7.6,8.3,11c2.4,2.5,4.4,5.4,5.9,8.7c1.8,4.2,3.9,8.3,6.4,12.2c0.3,0.5,0.5,1.2,0.7,1.8c2.1,5.5,4.3,11,6.1,16.6
	c0.7,2.3,1.5,4.5,2.3,6.7c1.3,3.5,1.1,7.2,1.1,10.9c0,2.4-0.1,4.8,1.3,7c0.8,1.3,0.6,2.8,0.6,4.2c0.1,2.5-0.2,5.1,0.7,7.6
	c0.4,1.1,0.2,2.5,0.2,3.8C785.5,261.1,785.5,267.4,785.5,273.8z"/>
<path class="st6" d="M2.6,884.3c0-51.9,0-103.7,0-155.6c0-1.6,0-3.2,0.1-4.8c0.1-1.5,0.9-2.3,2.5-2.4c1.1-0.1,2.2-0.1,3.3-0.1
	c3.3-0.1,6.7,0.3,10-0.8c0.7-0.2,1.6-0.1,2.4-0.1c3.1,0.1,6.1,0,8.5-2.2c0.9-0.8,2.1-0.6,3.2-0.7c1,0,1.9,0,2.6-0.9
	c0.9-0.1,2,0.1,2.6-0.7c1.1-1.4,2.7-1.1,4.2-1.5c2.9,0.3,5.7,0.6,8.5-0.5c0.7-0.3,1.5-0.5,2.2-0.9c1.7-1.1,2.2-2.7,1.4-4.6
	c-0.4-0.9-0.8-1.7-1.4-2.5c-0.7-0.9-1.1-1.9-1.2-3c-0.2-2.3-0.8-4.4-2.1-6.2c-0.3-0.5-0.6-1.2-0.7-1.8c-0.6-6.8-1.5-13.6-0.4-20.5
	c0.5-3.3,1-6.6,1.9-9.8c0.1-0.5,0.3-0.9,0.3-1.4c0.4-4.3,0.9-8.6,1-12.8c0-3,1.3-5.6,2.5-8.2c1.7-3.6,3-7.4,4.2-11.2
	c0-0.2,0.1-0.3,0.1-0.5c1.4-3.9,2.2-4.3,5.9-2.9c1.8,0.7,3.4,1.7,5.4,1.9c0.7,0.1,1.4,0.7,2,1.2c0.7,0.4,1.2,1.1,2,1.3
	c5.1,1.5,9.4,4.8,14.2,6.8c2.3,1,4.6,2.2,6.9,3.2c2.3,1,4.3,2.7,7,2.9c3.3,2.2,6.7,4.3,9.9,6.7c2.2,1.6,4.2,3.4,7,3.8
	c0.6,0.1,1.2,0.6,1.6,1c1.9,2.1,4.4,3.2,6.8,4.4c1.6,0.8,3.1,1.5,4.4,2.8c1.8,1.7,4.4,2,6.1,3.6c2,1.9,4.9,1.9,6.8,4.2
	c1.5,1.9,4.1,3,6.3,4.2c0.7,0.4,1.3,0.9,1.9,1.5c3.9,3.8,8,7.3,12.3,10.6c0.9,0.7,1.7,1.5,2.4,2.3c1.1,1.4,2,2.8,4.1,2.9
	c0.8,0,1.7,0.9,2.3,1.6c1.6,2.1,3.7,4,4.5,6.7c0.1,0.3,0.2,0.6,0.4,0.9c2.8,3.2,4.2,7.1,5.8,10.9c1.1,2.5,2.1,5,3.2,7.5
	c0.6,1.3,0.9,2.9,1.8,3.9c1.7,1.7,2.4,3.8,2.7,6c0.5,3.7,2.4,6.9,4.1,10.2c2.1,4.1,3.6,8.4,5.1,12.8c1.7,4.9,2,9.9,1.8,15.1
	c-0.1,3.2,0,6.4,0,9.6c0,3,0,6-0.7,9c-0.4,1.8-0.2,3.8-0.3,5.7c-0.2,5.1,0.6,10.2-0.7,15.3c-0.1,0.4-0.1,1,0,1.4
	c1.2,4.2,1.1,8.7,0.5,12.8c-1,7.6-0.1,15.3-1.8,22.8c-0.4,1.9-0.9,3.7-1.3,5.6c-0.2,0.8-0.5,1.6-0.5,2.3c0.3,4.8-1.9,9-3.2,13.4
	c-0.4,1.2-1.1,2.3-1.9,3.3c-0.7,1-0.8,2.1-0.8,3.2c-0.9,0.8-0.1,2-0.9,2.8c0,0.3-0.1,0.7-0.1,1c-0.7,0.9-1.2,1.9-1.8,2.9l0,0
	c-0.9,0.8-0.1,2-0.9,2.8l0,0.1c-0.6,0.5-0.4,1.3-0.9,1.9l-0.1,0.1c-0.3,0.3-0.6,0.6-0.9,0.9l0,0c-0.6,0.5-0.4,1.3-0.9,1.9l-0.1,0.1
	c-0.3,0.3-0.6,0.6-0.8,0.9l-0.1,0.1c-0.7,0.4-0.4,1.3-1,1.8l0,0c-0.6,0.5-0.4,1.4-0.9,1.9c0,0.3-0.1,0.6-0.1,1
	c-0.7,0.9-1.2,2-1.9,2.9l0,0c-0.3,0.3-0.6,0.6-0.8,1l-0.1,0.1c-0.7,0.4-0.4,1.3-1,1.8l0,0.1c-0.3,0.3-0.6,0.6-0.8,0.9l-0.1,0.1
	c-0.7,0.4-0.4,1.2-0.9,1.8c-0.1,0.6-0.1,1.3-0.2,1.9c-0.3,0.3-0.6,0.7-0.8,1c0,0.3-0.1,0.6-0.1,1c-0.3,0.3-0.6,0.7-0.9,1l0,0
	c-0.6,0.5-0.4,1.3-0.9,1.9c0,0-0.1,0.1-0.1,0.1c-0.8,0.3-1.4,0.8-1.7,1.5c-0.9,1.7-1.7,3.4-3.2,4.7c-0.2,0.2-0.4,0.5-0.5,0.8
	c-0.9,1.7-5,6.3-6.6,7.2c-3,1.7-5.5,4-7.4,6.6c-1.9,2.5-4.5,4.3-6.3,7c-1.3,1.9-3.9,2.7-5,4.9c-4.3,1.1-7.2,4.6-11.1,6.1
	c-3.8,1.5-6.9,3.8-10.3,5.8c-0.8,0.5-1.7,1-2.3,1.6c-1,0.9-2,1.4-3.4,1.5c-0.9,0.1-2.1,0.1-2.7,0.7c-2.9,2.5-6.6,3.7-9.8,5.8
	c-5.9,3.9-10.4,9.3-16.4,13c-0.4,0.2-0.8,0.6-1,1c-1.4,3.1-4.1,3.8-7.1,3.7c-1.9-0.2-2.7-2.3-4.4-2.7c-2.3-0.7-3.9-2.1-5.3-3.8
	c-2.9-3.5-5.9-7-7.8-11.3c-2.2-4.9-4.2-9.9-7.1-14.5c-0.4-0.7-0.5-1.5-0.8-2.2c-0.7-2.3-1.6-4.4-3.1-6.4c-1.1-1.5-2-3.1-2.5-5.1
	c-0.4-1.7-1.9-3.2-3-4.8c-4.4-6.4-8.8-12.8-13.2-19.1c-0.8-1.1-2-2-2.7-3.2c-1.7-2.7-4.9-4-6-7.2c-0.2-0.6-1.3-0.9-1.9-1.4
	c-2.4-2-5.2-3.6-7.4-6c-0.5-0.6-1.2-1.1-1.9-1.5C8.7,889.3,5.7,886.7,2.6,884.3z"/>
<path class="st6" d="M616.6,323.6c0.1,0,2.1,0.8,3,1.1c1.9,0.6,3.7,0.1,5.6-0.2c0.2,0,0.3-0.2,0.5-0.3c0.5-0.7,1.1-1,1.7-1.1
	c0.3,0,0.6-0.3,0.8-0.6c0.2-0.3,0.4-0.5,0.7-0.7c0.5-0.4,1-0.1,1.2,0.7c0.1,0.3,0.2,0.7,0.3,1.1c0.3,1.4,0.2,2.8,0.1,4.3
	c0.1,0.7,0,1.5,0.4,2.1c0.2,0.3,0.2,0.8,0.2,1.3c0.2,0.3,0.2,0.8,0.3,1.3c0,0.6,0,1.2,0.2,1.6c0.6,1.2,0.6,5.1,0.6,5.5
	c0.1,0.7,3.9,15.7,13.6,16c1.8,0.1,15-2.8,16.9-2.7c11.5,0.4,16.1-11,16.2-11.2c0.6-1.1,1.1-2.5,1.6-3.7c0.1-0.3,0.2-0.8,0.4-0.9
	c0.9-0.6,1.2-2.2,2-3c0.3-0.4,0.6-1,0.9-1.4c1.7-2.2,3.5-4.4,5.2-6.6c0.4-0.5,0.8-1.3,1.3-1.5c0.5-0.2,1-0.7,1.4-1.2
	c0.5-0.7,1.1-1.2,1.7-1.6c0.2-0.1,0.4-0.2,0.6-0.4c1.2-1.4,2.6-2.4,3.9-3.5c1.2-1,2.1-2.5,3.1-3.9c0.5-0.7,0.9-1.5,1-2.7
	c0.1-0.8,0.7-1.2,0.7-2.2c0-1.5-0.2-2.8-1-3.5c-0.1-0.1-0.2-0.3-0.3-0.5c-1-3-2.5-5.2-3.5-8.2c-0.6-1.6-0.9-3.4-1.6-4.9
	c-0.1-0.3-0.2-0.9-0.2-1.4c0-0.7-0.2-1.2-0.4-1.7c-0.2-0.3-0.3-0.8-0.4-1.2c-0.5-1.7-1.2-3.3-1.6-5.2c-0.4-2-1.4-3.4-1.7-5.6
	c-0.6-0.6-0.8-1.9-1.3-2.5c-0.7-0.9-1.2-2.2-1.9-3.2c-0.7-1-1.3-2.2-1.8-3.7c-0.2-0.8-1.5-2.8-2-3.3c-0.1-0.1-0.2-0.2-0.2-0.3
	c-0.4-0.7-0.8-1.1-1.3-1.6c-0.2-0.2-0.3-0.5-0.4-0.9c0,0,0,0,0,0c-0.2-0.2-0.4-0.1-0.5-0.4l0,0c-0.1-0.1-0.2-0.3-0.3-0.4
	c-0.1,0-0.2,0-0.3-0.1c-0.1-0.1-0.2-0.3-0.3-0.4c-0.2,0-0.3-0.1-0.5-0.1c-0.1-0.2-0.4-0.1-0.5-0.4l0,0c-0.1-0.1-0.2-0.3-0.2-0.4l0,0
	c-0.1-0.3-0.4-0.1-0.5-0.5l0,0c-0.1-0.1-0.2-0.3-0.3-0.4l0,0c-0.2-0.4-0.5-0.6-0.8-1c-0.1,0-0.2,0-0.3,0c-0.1-0.3-0.4-0.2-0.5-0.4
	l0,0c-0.1-0.3-0.4-0.2-0.5-0.5l0,0c-0.1-0.1-0.2-0.3-0.2-0.4l0,0c-0.1-0.2-0.4-0.2-0.5-0.5l0,0c-0.1-0.1-0.2-0.3-0.2-0.5l0,0
	c-0.1-0.2-0.4-0.1-0.5-0.5l0,0c-0.2-0.4-0.6,0-0.8-0.5l0,0c-0.3-0.3-0.5-0.6-0.8-0.9c-0.1,0-0.2,0-0.3-0.1c-0.2-0.4-0.6,0-0.8-0.4
	c-0.3,0-0.6-0.1-0.9-0.4c-0.3-0.4-0.6-0.7-0.9-0.9c-1.2-0.7-2.3-1.8-3.6-1.6c-0.2,0-0.4-0.2-0.6-0.2c-0.5-0.2-1-0.4-1.5-0.6
	c-2-0.8-4.1-0.4-6.2-0.9c-1.1-0.3-2.3-0.3-3.5,0.3c-0.1,0.1-0.3,0.1-0.4,0c-1.4-0.6-2.8-0.2-4.1-0.3c-0.5,0-1.1,0.1-1.6-0.1
	c-0.8-0.4-1.6-0.3-2.5-0.4c-0.9,0-1.7,0-2.6,0c-1.4-0.1-2.7,0.1-4.1,0.9c-1.2,0.8-2.3,1.5-3.5,2.6c-0.9,0.8-1.7,1.8-2.8,2
	c-0.6,0.2-1.2,0.5-1.6,1.3c-0.3,0.5-0.7,0.6-1,0.9c-0.7,0.5-1.4,1-2,1.6c-1,0.8-2.1,1.5-3,2.9c-0.1,0.1-0.2,0.1-0.2,0.2
	c-0.7,0.4-1.2,1.5-1.8,2.3c-0.2,0.3-0.4,0.7-0.4,1.1c0,1-0.4,1.5-0.8,2c-0.2,0.3-0.5,0.8-0.6,1.2c-0.9,2.2-1.8,4.2-2.9,6.2
	c-0.2,0.3-0.3,0.6-0.4,0.9c-0.3,1.1-0.6,2.4-1.1,3.2c-0.6,0.9-0.6,2.4-1.1,3.4c-0.4,0.9-0.5,2.2-1,3.1c-0.3,0.6-0.5,1.4-0.8,2.2
	c-0.3,1.2-0.6,2.5-1.2,3.4c-0.1,0.2-0.3,0.5-0.3,0.8c-0.1,1.4-0.6,2.4-1,3.5L616.6,323.6z"/>
<path class="st3" d="M743.5,761.5c0-1.3-0.5-2.7,0.8-3.7C744.2,759.1,744.7,760.5,743.5,761.5z"/>
<path class="st3" d="M743.3,769.3c-1.2-1.3-1.2-2.6,0-3.9C743.3,766.7,743.3,768,743.3,769.3z"/>
<path class="st4" d="M180.8,895.7c0-1.4,0.7-2.3,1.9-2.9C182.8,894.2,182.2,895.2,180.8,895.7z"/>
<path class="st4" d="M189.5,879.4c-0.1-1.4,0.6-2.3,1.9-2.9C191.4,877.9,190.8,878.9,189.5,879.4z"/>
<path class="st4" d="M188.6,882.3c0-1-0.2-2.2,0.9-2.8C189.5,880.5,189.7,881.6,188.6,882.3z"/>
<path class="st4" d="M191.5,875.6c-0.1-1-0.2-2.1,0.9-2.8C192.3,873.8,192.5,874.8,191.5,875.6z"/>
<path class="st4" d="M183.8,890c0-0.8,0.2-1.5,1-1.8C184.7,888.9,184.5,889.6,183.8,890z"/>
<path class="st4" d="M182.8,891.9c0-0.8,0.1-1.5,0.9-1.9C183.7,890.7,183.6,891.4,182.8,891.9z"/>
<path class="st4" d="M185.7,887.1c0-0.8,0.1-1.5,0.9-1.9C186.6,886,186.4,886.7,185.7,887.1z"/>
<path class="st4" d="M179,898.6c0-0.8,0.1-1.5,1-1.8C179.9,897.5,179.7,898.2,179,898.6z"/>
<path class="st4" d="M187.6,884.2c0-0.8,0.1-1.5,0.9-1.9C188.5,883.1,188.4,883.8,187.6,884.2z"/>
<path class="st4" d="M177.2,901.4c-0.1-0.8,0-1.4,0.9-1.8C178,900.4,177.8,901,177.2,901.4z"/>
<path class="st4" d="M174.3,908.2c-0.1-0.8,0.1-1.5,0.9-1.9C175.1,907.1,175,907.7,174.3,908.2z"/>
<path class="st3" d="M573.8,1040.5c0.3,0.3,0.6,0.5,0.9,0.8C574.4,1041.1,574.1,1040.8,573.8,1040.5z"/>
<path class="st4" d="M186.7,885.2c0.3-0.3,0.6-0.6,0.9-0.9C187.3,884.6,187,884.9,186.7,885.2z"/>
<path class="st4" d="M175.2,906.3c0.3-0.3,0.6-0.7,0.9-1C175.8,905.6,175.5,905.9,175.2,906.3z"/>
<path class="st4" d="M176.2,904.3c0.3-0.3,0.6-0.7,0.8-1C176.7,903.7,176.4,904,176.2,904.3z"/>
<path class="st4" d="M178.1,899.6c0.1-0.5,0.4-0.8,0.8-0.9C178.7,898.9,178.4,899.3,178.1,899.6z"/>
<path class="st4" d="M180,896.7c0.1-0.5,0.4-0.8,0.8-1C180.6,896,180.3,896.4,180,896.7z"/>
<path class="st4" d="M184.8,888.1c0.1-0.5,0.4-0.8,0.8-0.9C185.4,887.5,185.1,887.8,184.8,888.1z"/>
</svg>
